<?xml version="1.0" encoding="UTF-8"?>
<svg id="Layer_2" xmlns="http://www.w3.org/2000/svg" viewBox="0 0 48.11 42.25">
  <defs>
    <style>
      .cls-1 {
        fill: #010101;
      }
    </style>
  </defs>
  <g id="Layer_1-2" data-name="Layer_1">
    <g>
      <path class="cls-1" d="M24.01,42.24c-6.5,0-13,.02-19.5,0-4.19-.02-5.67-2.57-3.56-6.17C7.46,24.93,14,13.8,20.55,2.69c2.13-3.61,4.92-3.58,7.07.05,6.51,11.05,13,22.1,19.48,33.17,2.18,3.73.72,6.31-3.59,6.32-6.5.03-13,0-19.5,0ZM23.86,39.14c6.42,0,12.83-.03,19.25.02,1.86.02,2.07-.52,1.16-2.06-6.4-10.83-12.78-21.66-19.09-32.54-1.01-1.74-1.44-1.35-2.27.08C16.62,15.44,10.3,26.22,3.92,36.96c-1.18,1.99-.41,2.22,1.42,2.2,6.18-.06,12.35-.02,18.53-.02Z"/>
      <path class="cls-1" d="M26.54,17.49c-.25,2.54-.48,5.09-.74,7.63-.12,1.1-.43,2.08-1.84,2.02-1.29-.05-1.53-1-1.64-1.98-.34-3.18-.66-6.35-.94-9.54-.18-2.09.92-3.51,2.65-3.52,1.74-.01,2.84,1.39,2.7,3.48-.04.64-.16,1.27-.24,1.9.02,0,.03,0,.05,0Z"/>
      <path class="cls-1" d="M27.05,33.06c-.23,1.85-1.11,3.06-3.06,3.01-1.95-.05-2.9-1.29-2.85-3.13.05-1.82,1.25-2.73,3-2.7,1.76.04,2.75,1.06,2.91,2.82Z"/>
    </g>
  </g>
</svg>