<?xml version="1.0" encoding="UTF-8"?>
<svg id="Layer_1" xmlns="http://www.w3.org/2000/svg" width="72" height="94.77" viewBox="0 0 72 94.77">
  <g>
    <path d="M9.2,76.3h2.53c1.41,0,2.46.11,3.15.34.69.22,1.28.6,1.77,1.14.44.47.76,1,.98,1.61.21.61.32,1.3.32,2.07s-.11,1.47-.32,2.09c-.21.61-.54,1.15-.98,1.62-.5.54-1.1.91-1.79,1.14-.7.22-1.74.34-3.13.34h-2.53v-10.33ZM11.6,78.32v6.3h.86c.98,0,1.73-.27,2.24-.81s.77-1.32.77-2.35-.26-1.8-.77-2.34c-.51-.54-1.26-.8-2.25-.8h-.86Z" style="fill: #010101;"/>
    <path d="M19.78,76.3h6.47v2.01h-4.07v1.92h3.83v2.01h-3.83v2.37h4.21v2.01h-6.61v-10.33Z" style="fill: #010101;"/>
    <path d="M28.49,76.3h3.98c1.19,0,2.09.29,2.73.88s.95,1.41.95,2.49-.32,1.92-.95,2.5-1.54.88-2.73.88h-1.58v3.58h-2.4v-10.33ZM30.89,78.23v2.89h1.32c.47,0,.83-.13,1.08-.38.25-.25.38-.61.38-1.07s-.13-.82-.38-1.07c-.25-.25-.61-.37-1.08-.37h-1.32Z" style="fill: #010101;"/>
    <path d="M37.83,76.3h2.4v8.32h4.21v2.01h-6.61v-10.33Z" style="fill: #010101;"/>
    <path d="M49.69,76.12c1.49,0,2.67.48,3.51,1.43.85.95,1.27,2.26,1.27,3.94s-.42,2.98-1.27,3.93c-.85.95-2.02,1.43-3.51,1.43s-2.66-.48-3.51-1.43c-.85-.95-1.27-2.26-1.27-3.93s.42-2.99,1.27-3.94,2.02-1.43,3.51-1.43ZM49.69,78.05c-.73,0-1.29.3-1.7.9-.4.6-.61,1.44-.61,2.53s.2,1.93.61,2.53c.4.6.97.9,1.7.9s1.3-.3,1.71-.9c.4-.6.61-1.44.61-2.53s-.2-1.93-.61-2.53c-.4-.6-.97-.9-1.71-.9Z" style="fill: #010101;"/>
    <path d="M54.49,76.3h2.62l2.12,3.68,2.12-3.68h2.63l-3.54,5.98v4.35h-2.4v-4.35l-3.54-5.98Z" style="fill: #010101;"/>
  </g>
  <rect x="4.01" y="2.25" width="63.98" height="63.98" rx="31.99" ry="31.99" style="fill: #fff;"/>
  <path d="M46.9,29.96c-2.65-1.31-5.3-2.64-7.96-3.96-.64-.31-1.28-.64-1.91-.95-.03-.01-.34-.18-.68-.36-.68-.36-1.49-.36-2.16,0-.32.17-.59.32-.63.34-2.34,1.17-8.73,4.35-9.93,5.04-.71.41-1.02.92-1.02,1.81.01,3.69,0,7.68,0,11.37v2.47c0,.4.23.76.59.93.48.22,1.08.51,1.12.53,1.07.54,2.15,1.09,3.23,1.62,2.24,1.12,4.49,2.24,6.71,3.37.67.35,1.26.37,1.92.06,1.79-.83,3.49-1.82,5.27-2.67,1.66-.79,3.2-1.58,4.78-2.37.05-.03.64-.3,1.11-.52.37-.17.6-.53.6-.94v-3.05c.01-3.67,0-7.34.02-11.01,0-.84-.32-1.35-1.07-1.72ZM33.88,48.41v.4c-.23-.12-.41-.21-.6-.3-2.52-1.26-5.05-2.53-7.56-3.78-.18-.09-.29-.17-.29-.4.01-3.47,0-6.95.01-10.42,0-.06,0-.11.01-.22.16.07.27.12.38.18,2.58,1.29,5.16,2.57,7.73,3.86.23.11.34.23.34.53-.01,3.39-.01,6.77-.01,10.16ZM35.55,35.29c-.13.07-.35.09-.48.03-2.56-1.28-5.12-2.56-7.69-3.84-.04-.02-.08-.06-.18-.11.79-.4,1.53-.77,2.27-1.14,1.71-.85,3.42-1.71,5.13-2.55.43-.21.94-.21,1.37,0,2.4,1.19,4.8,2.39,7.19,3.59.04.02.1.06.18.1-.1.07-.17.12-.25.16-2.51,1.25-5.02,2.52-7.54,3.76ZM44.84,44.75c-2.6,1.29-5.19,2.58-7.79,3.88-.1.06-.21.1-.35.16,0-.13-.01-.23-.01-.34,0-3.41,0-6.83-.01-10.24,0-.19.01-.34.23-.45,2.66-1.31,5.32-2.65,7.98-3.97.07-.04.15-.06.25-.1v.38c0,3.39,0,6.78.01,10.17,0,.26-.08.38-.31.5Z" style="fill: #010101;"/>
  <path d="M54.98,15.51v6.95c0,.22-.08.41-.22.55s-.34.22-.55.22c-.43,0-.77-.34-.77-.77v-3.89s0-.9,0-.9l-7.34,7.34c-.49.49-1.29.49-1.78,0-.24-.24-.37-.56-.37-.89,0-.33.13-.65.37-.89l7.27-7.27h-4.79c-.42,0-.77-.35-.77-.77,0-.43.35-.77.78-.78h7.1c.6,0,1.08.49,1.08,1.09Z" style="fill: #010101;"/>
</svg>