<?xml version="1.0" encoding="UTF-8"?>
<svg id="Layer_1" xmlns="http://www.w3.org/2000/svg" width="72" height="94.77" viewBox="0 0 72 94.77">
  <rect x="3.73" y="2.4" width="64.55" height="64.55" rx="32.27" ry="32.27" style="fill: #fff;"/>
  <path d="M52.74,33.3v15.65c0,2.18-1.76,3.94-3.94,3.94h-26.57c-2.18,0-3.94-1.76-3.94-3.94v-26.57c0-2.18,1.76-3.94,3.94-3.94h16.26c.74,0,1.34.6,1.34,1.34h0c0,.74-.6,1.34-1.34,1.34h-16.19c-.74,0-1.34.6-1.34,1.34v26.44c0,.74.6,1.34,1.34,1.34h26.44c.74,0,1.34-.6,1.34-1.34v-15.58c0-.74.6-1.34,1.34-1.34h0c.74,0,1.34.6,1.34,1.34Z" style="fill: #010101;"/>
  <path d="M54.9,22.17l-1.99,2-5.06-5.06,1.99-2c.88-.88,2.31-.88,3.19,0l1.88,1.88c.88.88.88,2.31,0,3.19Z" style="fill: #010101;"/>
  <path d="M51.51,25.56l-15.87,15.87c-.3.3-.67.54-1.08.69l-1.16.42-5.93,2.17c-.39.14-.75-.25-.59-.63l2.58-5.79.42-.95c.15-.34.37-.65.63-.92l15.93-15.93,5.06,5.06Z" style="fill: #010101;"/>
  <g>
    <path d="M10,76.16h2.53c1.41,0,2.46.11,3.15.34.69.22,1.28.6,1.77,1.14.44.47.76,1,.98,1.61.21.61.32,1.3.32,2.07s-.11,1.47-.32,2.09c-.21.61-.54,1.15-.98,1.62-.5.54-1.1.91-1.79,1.14-.7.22-1.74.34-3.13.34h-2.53v-10.33ZM12.4,78.17v6.3h.86c.98,0,1.73-.27,2.24-.81s.77-1.32.77-2.35-.26-1.8-.77-2.34c-.51-.54-1.26-.8-2.25-.8h-.86Z" style="fill: #010101;"/>
    <path d="M20.58,76.16h6.47v2.01h-4.07v1.92h3.83v2.01h-3.83v2.37h4.21v2.01h-6.61v-10.33Z" style="fill: #010101;"/>
    <path d="M35.76,76.48v2.19c-.51-.25-1-.45-1.49-.57-.49-.13-.95-.19-1.38-.19-.57,0-1,.09-1.27.26s-.41.45-.41.82c0,.28.09.49.28.65s.52.29,1.01.4l1.02.23c1.04.23,1.77.58,2.21,1.05s.65,1.14.65,2.01c0,1.14-.3,1.99-.91,2.54-.61.56-1.54.83-2.78.83-.59,0-1.18-.06-1.77-.19s-1.19-.31-1.78-.55v-2.25c.59.35,1.17.61,1.72.79.55.18,1.09.27,1.6.27s.92-.1,1.2-.29c.28-.19.42-.47.42-.83,0-.32-.09-.57-.28-.75-.19-.18-.57-.33-1.13-.47l-.93-.23c-.93-.22-1.61-.57-2.04-1.06-.43-.48-.65-1.14-.65-1.96,0-1.03.3-1.82.9-2.37.6-.55,1.46-.83,2.57-.83.51,0,1.04.04,1.58.13.54.09,1.1.21,1.67.38Z" style="fill: #010101;"/>
    <path d="M38.47,76.16h2.4v10.33h-2.4v-10.33Z" style="fill: #010101;"/>
    <path d="M51.56,85.72c-.6.32-1.22.57-1.86.73s-1.31.24-1.99.24c-1.55,0-2.78-.48-3.68-1.44-.9-.96-1.36-2.27-1.36-3.91s.46-2.97,1.38-3.93,2.18-1.43,3.79-1.43c.62,0,1.21.06,1.78.19.57.13,1.1.32,1.6.57v2.14c-.52-.33-1.04-.57-1.55-.73-.51-.16-1.03-.24-1.54-.24-.95,0-1.69.3-2.21.89-.52.59-.77,1.44-.77,2.54s.25,1.94.75,2.53,1.21.89,2.12.89c.25,0,.48-.02.7-.05.21-.03.4-.09.57-.16v-2.01h-1.46v-1.78h3.74v4.97Z" style="fill: #010101;"/>
    <path d="M53.67,76.16h2.68l3.38,7.08v-7.08h2.27v10.33h-2.68l-3.38-7.08v7.08h-2.28v-10.33Z" style="fill: #010101;"/>
  </g>
</svg>