<?xml version="1.0" encoding="UTF-8"?>
<svg id="Layer_1" xmlns="http://www.w3.org/2000/svg" width="72" height="94.77" viewBox="0 0 72 94.77">
  <rect x="4.01" y="2.46" width="63.98" height="63.69" rx="31.84" ry="31.84" style="fill: #fff;"/>
  <path d="M41.52,36.34l-6.13,6.11c-.2.19-.44.29-.69.29s-.49-.1-.68-.29c-.38-.38-.38-.98,0-1.36l3.44-3.42.79-.79h-17.14c-.86,0-1.57-.7-1.57-1.56,0-.43.17-.82.46-1.1.29-.29.68-.46,1.11-.46h17l-.72-.71-3.52-3.5c-.37-.37-.37-.98,0-1.36.38-.38.99-.37,1.37,0l6.27,6.25c.53.52.53,1.38,0,1.91Z" style="fill: #010101;"/>
  <path d="M52.36,20.74v29.11c0,1.42-1.17,2.59-2.61,2.59h-15.23v-2.66h15.17v-28.98h-15.17v-2.66h15.23c1.44,0,2.61,1.17,2.61,2.6Z" style="fill: #010101;"/>
  <g>
    <path d="M15.27,76.17h2.4v10.28h-2.4v-10.28Z" style="fill: #010101;"/>
    <path d="M20.01,76.17h2.68l3.38,7.05v-7.05h2.27v10.28h-2.68l-3.38-7.05v7.05h-2.28v-10.28Z" style="fill: #010101;"/>
    <path d="M30.68,76.17h3.98c1.19,0,2.09.29,2.73.87.63.58.95,1.41.95,2.48s-.32,1.91-.95,2.49c-.63.58-1.54.87-2.73.87h-1.58v3.57h-2.4v-10.28ZM33.08,78.09v2.87h1.32c.47,0,.83-.12,1.08-.38.25-.25.38-.6.38-1.06s-.13-.81-.38-1.06c-.25-.25-.61-.37-1.08-.37h-1.32Z" style="fill: #010101;"/>
    <path d="M40.02,76.17h2.4v6.16c0,.85.13,1.46.38,1.82s.66.55,1.23.55.98-.18,1.23-.55.38-.97.38-1.82v-6.16h2.4v6.16c0,1.46-.33,2.54-.99,3.25-.66.71-1.67,1.07-3.02,1.07s-2.36-.36-3.02-1.07c-.66-.71-.99-1.8-.99-3.25v-6.16Z" style="fill: #010101;"/>
    <path d="M49.26,76.17h8.57v2h-3.08v8.28h-2.4v-8.28h-3.09v-2Z" style="fill: #010101;"/>
  </g>
</svg>