<?xml version="1.0" encoding="UTF-8"?>
<svg id="Layer_1" xmlns="http://www.w3.org/2000/svg" width="72" height="94.77" viewBox="0 0 72 94.77">
  <rect x="4.01" y="2.25" width="63.98" height="63.98" rx="31.99" ry="31.99" style="fill: #fff;"/>
  <path d="M16.74,45.4c.23-.62.72-.94,1.3-1.21,1.38-.62,2.73-1.3,4.11-1.93.25-.11.32-.25.32-.51,0-4.51,0-9.03-.01-13.54,0-.78.32-1.29,1.01-1.64,3.56-1.77,7.12-3.56,10.68-5.33.25-.12.36-.26.36-.56-.02-1.53-.01-3.06,0-4.59,0-.96.61-1.62,1.49-1.62.9,0,1.51.66,1.51,1.64,0,1.52.01,3.03,0,4.55,0,.31.11.45.37.59,3.52,1.75,7.02,3.52,10.54,5.25.79.39,1.14.94,1.14,1.83-.02,4.44,0,8.87-.02,13.31,0,.36.12.52.43.66,1.49.69,2.97,1.39,4.44,2.1.62.3.91.87.85,1.54-.06.6-.5,1.11-1.12,1.28-.41.11-.79.03-1.16-.15-1.52-.73-3.05-1.44-4.58-2.17-.26-.12-.45-.11-.7.01-3.54,1.78-7.1,3.54-10.63,5.33-.76.38-1.4.38-2.16,0-3.53-1.8-7.09-3.55-10.63-5.33-.24-.12-.42-.13-.66-.02-1.44.7-2.9,1.35-4.33,2.07-.99.5-1.98.46-2.55-.82v-.75ZM25.48,30.48c0,.12-.01.18-.01.24,0,3.71,0,7.42,0,11.12,0,.25.12.34.31.43,2.7,1.34,5.39,2.69,8.08,4.04.2.1.39.2.64.32,0-.18,0-.3,0-.42,0-3.62,0-7.24,0-10.86,0-.3-.1-.44-.35-.56-2.76-1.37-5.51-2.75-8.26-4.12-.12-.06-.24-.11-.41-.19ZM46.53,30.5c-.12.04-.2.07-.27.1-2.84,1.42-5.68,2.84-8.52,4.25-.23.12-.24.27-.24.47,0,3.65,0,7.29,0,10.94,0,.11.01.21.02.36.15-.07.26-.11.37-.17,2.77-1.39,5.55-2.78,8.32-4.15.25-.12.33-.27.33-.54-.01-3.62,0-7.24,0-10.86v-.4ZM27.37,28.01c.11.07.14.09.19.12,2.74,1.37,5.48,2.74,8.22,4.1.14.07.37.04.51-.03,2.69-1.33,5.37-2.68,8.06-4.02.08-.04.16-.1.26-.16-.09-.05-.14-.09-.19-.11-2.72-1.36-5.43-2.72-8.16-4.07-.15-.07-.39-.06-.55.02-1.97.97-3.94,1.96-5.91,2.94-.79.4-1.58.79-2.43,1.22Z" style="fill: #010101;"/>
  <g>
    <path d="M11.7,76.3h3.05l2.12,5.53,2.13-5.53h3.04v10.33h-2.27v-7.55l-2.14,5.57h-1.52l-2.14-5.57v7.55h-2.28v-10.33Z" style="fill: #010101;"/>
    <path d="M28.63,76.12c1.49,0,2.67.48,3.51,1.43.85.95,1.27,2.26,1.27,3.94s-.42,2.98-1.27,3.93c-.85.95-2.02,1.43-3.51,1.43s-2.66-.48-3.51-1.43c-.85-.95-1.27-2.26-1.27-3.93s.42-2.99,1.27-3.94,2.02-1.43,3.51-1.43ZM28.63,78.05c-.73,0-1.29.3-1.7.9-.4.6-.61,1.44-.61,2.53s.2,1.93.61,2.53c.4.6.97.9,1.7.9s1.3-.3,1.71-.9c.4-.6.61-1.44.61-2.53s-.2-1.93-.61-2.53c-.4-.6-.97-.9-1.71-.9Z" style="fill: #010101;"/>
    <path d="M35.22,76.3h2.53c1.41,0,2.46.11,3.15.34.69.22,1.28.6,1.77,1.14.44.47.76,1,.98,1.61.21.61.32,1.3.32,2.07s-.11,1.47-.32,2.09c-.21.61-.54,1.15-.98,1.62-.5.54-1.1.91-1.79,1.14-.7.22-1.74.34-3.13.34h-2.53v-10.33ZM37.62,78.32v6.3h.86c.98,0,1.73-.27,2.24-.81s.77-1.32.77-2.35-.26-1.8-.77-2.34c-.51-.54-1.26-.8-2.25-.8h-.86Z" style="fill: #010101;"/>
    <path d="M45.81,76.3h6.47v2.01h-4.07v1.92h3.83v2.01h-3.83v2.37h4.21v2.01h-6.61v-10.33Z" style="fill: #010101;"/>
    <path d="M54.52,76.3h2.4v8.32h4.21v2.01h-6.61v-10.33Z" style="fill: #010101;"/>
  </g>
</svg>