<?xml version="1.0" encoding="UTF-8"?>
<svg id="Layer_1" xmlns="http://www.w3.org/2000/svg" width="72" height="94.77" viewBox="0 0 72 94.77">
  <rect x="4.01" y="2.25" width="63.98" height="63.98" rx="31.99" ry="31.99" style="fill: #fff;"/>
  <g>
    <path d="M36.06,52.46c-.1,0-.2,0-.3,0-.85-.01-1.51-.76-1.42-1.61h0c.08-.74.7-1.31,1.44-1.29.17,0,.35,0,.52,0,.74-.01,1.36.56,1.44,1.29h0c.09.85-.56,1.59-1.42,1.61-.09,0-.18,0-.28,0ZM42.36,49.63h0c-.3-.69-.03-1.49.63-1.85.14-.08.27-.15.41-.23.64-.38,1.47-.22,1.92.39h0c.5.69.31,1.66-.43,2.1-.16.1-.33.19-.5.29-.75.41-1.69.09-2.03-.69ZM27.73,50.31c-.17-.09-.33-.19-.5-.29-.73-.44-.93-1.41-.42-2.1h0c.44-.61,1.27-.77,1.92-.39.13.08.27.16.41.23.66.36.93,1.16.63,1.85h0c-.34.78-1.28,1.1-2.03.69ZM48.69,44.59h0c-.6-.45-.76-1.28-.37-1.92.08-.13.16-.27.24-.4.37-.65,1.17-.92,1.86-.61h0c.78.35,1.09,1.29.67,2.04-.09.17-.19.33-.29.49-.44.73-1.42.92-2.1.41ZM21.33,44.16c-.1-.16-.2-.33-.29-.5-.42-.74-.1-1.69.68-2.03h0c.68-.31,1.49-.04,1.85.62.08.14.16.27.24.41.39.64.23,1.47-.37,1.92h0c-.69.51-1.66.32-2.1-.41Z" style="fill: #010101;"/>
    <path d="M56.96,33.51l-4.49,4.98c-.16.17-.37.26-.59.26-.18,0-.36-.06-.51-.18l-4.95-4.16c-.34-.28-.38-.78-.1-1.12.28-.34.78-.38,1.12-.1l2.94,2.47c0-.14,0-.28,0-.42,0-7.9-6.43-14.33-14.33-14.33s-14.33,6.42-14.33,14.33c0,.11,0,.22,0,.33.02.75-.54,1.39-1.28,1.47h0c-.85.1-1.6-.56-1.62-1.41,0-.13,0-.26,0-.39,0-9.5,7.73-17.23,17.23-17.23s17.21,7.71,17.23,17.2l-.03.03h.03v-.03l2.49-2.76c.29-.33.8-.35,1.12-.06.33.29.35.8.06,1.12Z" style="fill: #010101;"/>
  </g>
  <g>
    <path d="M3.03,76.3h3.05l2.12,5.53,2.13-5.53h3.04v10.33h-2.27v-7.55l-2.14,5.57h-1.52l-2.14-5.57v7.55h-2.28v-10.33Z" style="fill: #010101;"/>
    <path d="M19.96,76.12c1.49,0,2.66.48,3.51,1.43.85.95,1.27,2.26,1.27,3.94s-.42,2.98-1.27,3.93c-.85.95-2.02,1.43-3.51,1.43s-2.66-.48-3.51-1.43c-.85-.95-1.27-2.26-1.27-3.93s.42-2.99,1.27-3.94,2.02-1.43,3.51-1.43ZM19.96,78.05c-.73,0-1.29.3-1.7.9-.4.6-.6,1.44-.6,2.53s.2,1.93.6,2.53c.4.6.97.9,1.7.9s1.3-.3,1.71-.9c.4-.6.6-1.44.6-2.53s-.2-1.93-.6-2.53c-.4-.6-.97-.9-1.71-.9Z" style="fill: #010101;"/>
    <path d="M26.55,76.3h2.68l3.38,7.08v-7.08h2.27v10.33h-2.68l-3.38-7.08v7.08h-2.28v-10.33Z" style="fill: #010101;"/>
    <path d="M37.22,76.3h2.4v10.33h-2.4v-10.33Z" style="fill: #010101;"/>
    <path d="M40.85,76.3h8.56v2.01h-3.08v8.32h-2.4v-8.32h-3.09v-2.01Z" style="fill: #010101;"/>
    <path d="M54.9,76.12c1.49,0,2.67.48,3.51,1.43s1.27,2.26,1.27,3.94-.42,2.98-1.27,3.93c-.85.95-2.02,1.43-3.51,1.43s-2.66-.48-3.51-1.43c-.85-.95-1.27-2.26-1.27-3.93s.42-2.99,1.27-3.94c.85-.95,2.02-1.43,3.51-1.43ZM54.9,78.05c-.73,0-1.29.3-1.7.9-.4.6-.61,1.44-.61,2.53s.2,1.93.61,2.53c.4.6.97.9,1.7.9s1.3-.3,1.71-.9c.4-.6.61-1.44.61-2.53s-.2-1.93-.61-2.53c-.4-.6-.97-.9-1.71-.9Z" style="fill: #010101;"/>
    <path d="M63.89,82.72v3.91h-2.4v-10.33h3.66c1.23,0,2.12.23,2.69.69.57.46.85,1.18.85,2.17,0,.68-.15,1.24-.44,1.68-.3.44-.74.76-1.34.97.33.08.62.27.88.56.26.29.52.74.79,1.33l1.3,2.93h-2.55l-1.13-2.57c-.23-.52-.46-.87-.7-1.06-.24-.19-.55-.28-.93-.28h-.68ZM64.9,80.88c.5,0,.86-.1,1.08-.31s.33-.55.33-1.02-.11-.81-.33-1.01c-.22-.2-.58-.3-1.08-.3h-1.01v2.65h1.01Z" style="fill: #010101;"/>
  </g>
</svg>