<?xml version="1.0" encoding="UTF-8"?>
<svg id="Layer_2" data-name="Layer 2" xmlns="http://www.w3.org/2000/svg" width="24.09mm" height="31.84mm" viewBox="0 0 68.28 90.26">
  <g id="Layer_1-2" data-name="Layer 1">
    <g>
      <rect x="1.79" y="0" width="64.69" height="64.69" rx="32.35" ry="32.35" style="fill: #fff;"/>
      <g>
        <path d="M34.21,50.77c-.1,0-.2,0-.3,0-.86-.01-1.52-.77-1.43-1.63h0c.08-.74.71-1.32,1.46-1.31.18,0,.35,0,.53,0,.75-.01,1.38.56,1.46,1.31h0c.09.86-.57,1.61-1.43,1.63-.09,0-.19,0-.28,0ZM40.57,47.91h0c-.3-.7-.03-1.5.64-1.87.14-.08.28-.16.41-.24.65-.39,1.49-.22,1.94.39h0c.51.7.31,1.68-.43,2.13-.17.1-.33.2-.5.29-.75.42-1.71.09-2.05-.7ZM25.77,48.6c-.17-.09-.34-.19-.5-.29-.74-.44-.94-1.43-.43-2.13h0c.45-.61,1.29-.78,1.94-.39.14.08.27.16.41.24.66.37.94,1.18.63,1.87h0c-.35.79-1.3,1.12-2.05.7ZM46.97,42.8h0c-.61-.45-.77-1.29-.38-1.94.08-.13.16-.27.24-.41.37-.66,1.18-.93,1.88-.62h0c.79.35,1.11,1.31.68,2.06-.09.17-.19.33-.29.5-.45.74-1.44.93-2.13.41ZM19.3,42.38c-.1-.17-.2-.33-.29-.5-.42-.75-.1-1.71.68-2.06h0c.69-.31,1.5-.04,1.87.62.08.14.16.27.24.41.39.65.23,1.49-.38,1.94h0c-.69.51-1.68.32-2.13-.41Z" style="fill: #010101;"/>
        <path d="M55.34,31.61l-4.54,5.03c-.16.18-.38.26-.6.26-.18,0-.37-.06-.52-.19l-5-4.2c-.34-.29-.39-.79-.1-1.13.29-.34.79-.39,1.13-.1l2.97,2.5c0-.14,0-.29,0-.43,0-7.99-6.5-14.49-14.49-14.49s-14.48,6.5-14.48,14.49c0,.11,0,.22,0,.34.02.76-.55,1.4-1.3,1.49h0c-.86.1-1.62-.57-1.64-1.43,0-.13,0-.26,0-.39,0-9.61,7.81-17.42,17.42-17.42s17.4,7.79,17.42,17.39l-.03.03h.03v-.03l2.52-2.79c.3-.33.81-.36,1.13-.06.33.3.36.81.06,1.14Z" style="fill: #010101;"/>
      </g>
      <text transform="translate(0 84.38)" style="fill: #010101; font-family: DejaVuSansCondensed-Bold, &apos;DejaVu Sans&apos;; font-size: 14.17px; font-weight: 700;"><tspan x="0" y="0">MONITOR</tspan></text>
    </g>
  </g>
</svg>