<?xml version="1.0" encoding="UTF-8"?>
<svg id="Layer_1" xmlns="http://www.w3.org/2000/svg" width="72" height="94.77" viewBox="0 0 72 94.77">
  <rect x="4.01" y="2.25" width="63.98" height="63.98" rx="31.99" ry="31.99" style="fill: #fff;"/>
  <path d="M53.52,36.28l-6.21,6.21c-.19.2-.44.29-.69.29s-.5-.1-.69-.29c-.38-.38-.38-1,0-1.38l4.32-4.32h-10.18v13.07c0,1.44-1.18,2.6-2.6,2.6h-13.61v-2.67h13.55v-29.11h-13.55v-2.68h13.61c1.43,0,2.6,1.18,2.6,2.6v13.07h10.04l-.76-.76-3.55-3.55c-.38-.38-.38-1,0-1.38.38-.38,1-.38,1.38,0l6.35,6.36c.53.53.53,1.4,0,1.93Z" style="fill: #010101;"/>
  <g>
    <path d="M12.28,76.12c1.49,0,2.66.48,3.51,1.43.85.95,1.27,2.26,1.27,3.94s-.42,2.98-1.27,3.93c-.85.95-2.02,1.43-3.51,1.43s-2.66-.48-3.51-1.43c-.85-.95-1.27-2.26-1.27-3.93s.42-2.99,1.27-3.94,2.02-1.43,3.51-1.43ZM12.28,78.05c-.73,0-1.29.3-1.7.9-.4.6-.6,1.44-.6,2.53s.2,1.93.6,2.53c.4.6.97.9,1.7.9s1.3-.3,1.71-.9c.4-.6.61-1.44.61-2.53s-.2-1.93-.61-2.53c-.4-.6-.97-.9-1.71-.9Z" style="fill: #010101;"/>
    <path d="M18.87,76.3h2.4v6.19c0,.85.13,1.46.38,1.83.25.37.66.55,1.23.55s.98-.18,1.23-.55.38-.98.38-1.83v-6.19h2.4v6.19c0,1.46-.33,2.55-.99,3.27-.66.72-1.67,1.07-3.02,1.07s-2.36-.36-3.02-1.07c-.66-.71-.99-1.8-.99-3.27v-6.19Z" style="fill: #010101;"/>
    <path d="M28.11,76.3h8.57v2.01h-3.08v8.32h-2.4v-8.32h-3.09v-2.01Z" style="fill: #010101;"/>
    <path d="M37.92,76.3h3.98c1.19,0,2.09.29,2.73.88s.95,1.41.95,2.49-.32,1.92-.95,2.5-1.54.88-2.73.88h-1.58v3.58h-2.4v-10.33ZM40.32,78.23v2.89h1.32c.47,0,.83-.13,1.08-.38.25-.25.38-.61.38-1.07s-.13-.82-.38-1.07-.61-.37-1.08-.37h-1.32Z" style="fill: #010101;"/>
    <path d="M47.26,76.3h2.4v6.19c0,.85.12,1.46.38,1.83.25.37.66.55,1.23.55s.98-.18,1.24-.55c.25-.37.38-.98.38-1.83v-6.19h2.4v6.19c0,1.46-.33,2.55-.99,3.27-.66.72-1.67,1.07-3.02,1.07s-2.36-.36-3.02-1.07c-.66-.71-.99-1.8-.99-3.27v-6.19Z" style="fill: #010101;"/>
    <path d="M56.5,76.3h8.57v2.01h-3.08v8.32h-2.4v-8.32h-3.09v-2.01Z" style="fill: #010101;"/>
  </g>
</svg>