<?xml version="1.0" encoding="UTF-8"?>
<svg id="Layer_1" xmlns="http://www.w3.org/2000/svg" width="854.95" height="778.98" viewBox="0 0 854.95 778.98">
  <path d="M854.95,296.08v221.41c-11.86,4.06-24.57,6.26-37.79,6.26-64.47,0-116.97-52.41-116.97-116.97s52.5-116.97,116.97-116.97c13.22,0,25.93,2.2,37.79,6.27Z" style="fill: #fff;"/>
  <path d="M428.48,386.12c20.2-25.84,175.09-215.87,384.88-215.87,14.12,0,27.99.82,41.59,2.38v60.33c-13.6-1.88-27.48-2.89-41.59-2.89-155.51,0-282.4,128.86-324.34,176.89,41.04,48.11,165.7,176.79,324.34,176.79,14.09,0,27.97-1.04,41.59-2.97v60.27c-13.61,1.59-27.49,2.44-41.59,2.44-213.01,0-363.96-188.69-384.88-216.14,8.6,166.11,121.31,304.63,274.11,351.64h-283.17c-94.77-98.8-153.07-232.84-153.07-380.26C266.35,241.93,332.31,100.25,437.94,0h417.01v19.41c-12.42-1.2-25.01-1.81-37.74-1.81-208.01,0-377.91,163.2-388.73,368.52Z" style="fill: #fff;"/>
</svg>