<?xml version="1.0" encoding="UTF-8"?>
<svg id="Layer_1" xmlns="http://www.w3.org/2000/svg" width="854.95" height="778.98" viewBox="0 0 854.95 778.98">
  <path d="M742.04,0h-260.71c-110.19,49.72-186.86,160.53-186.86,289.25,0,175.13,142.01,317.14,317.25,317.14,97.68,0,185.05-44.18,243.23-113.65V85.71C824.44,49.27,785.89,19.8,742.04,0ZM764.29,410.51c14.33,14.7,14.01,38.42-.64,52.75-7.22,7.06-16.61,10.56-26,10.56s-19.43-3.77-26.7-11.2l-99.29-101.67-99.29,101.67c-7.27,7.43-16.98,11.2-26.69,11.2s-18.79-3.5-26.01-10.56c-14.64-14.33-14.96-38.05-.63-52.75l100.51-102.95-100.51-102.96c-14.33-14.64-14.01-38.36.63-52.69,7.22-7.06,16.61-10.56,26.06-10.56s19.37,3.71,26.64,11.19l99.29,101.68,99.29-101.68c7.27-7.48,16.93-11.19,26.64-11.19s18.84,3.5,26.06,10.56c14.65,14.33,14.97,38.05.64,52.69l-100.51,102.96,100.51,102.95Z" style="fill: #fff;"/>
  <path d="M459.67,151.91c7.22-7.06,16.61-10.56,26.06-10.56s19.37,3.71,26.64,11.19l99.29,101.68,99.29-101.68c7.27-7.48,16.93-11.19,26.64-11.19s18.84,3.5,26.06,10.56c14.65,14.33,14.97,38.05.64,52.69l-100.51,102.96,100.51,102.95c14.33,14.7,14.01,38.42-.64,52.75-7.22,7.06-16.61,10.56-26,10.56s-19.43-3.77-26.7-11.2l-99.29-101.67-99.29,101.67c-7.27,7.43-16.98,11.2-26.69,11.2s-18.79-3.5-26.01-10.56c-14.64-14.33-14.96-38.05-.63-52.75l100.51-102.95-100.51-102.96c-14.33-14.64-14.01-38.36.63-52.69Z" style="fill: none;"/>
  <path d="M854.95,0v85.71C824.44,49.27,785.89,19.8,742.04,0h112.91Z" style="fill: none;"/>
  <polygon points="852.63 778.98 854.95 776.66 854.95 778.98 852.63 778.98" style="fill: none;"/>
  <polygon points="854.95 613.87 854.95 776.66 852.63 778.98 689.84 778.98 854.95 613.87" style="fill: #fff;"/>
</svg>