<?xml version="1.0" encoding="UTF-8"?>
<svg id="Layer_1" xmlns="http://www.w3.org/2000/svg" width="854.95" height="778.98" viewBox="0 0 854.95 778.98">
  <path d="M755.52,218.65c-.64-.04-1.35-.04-2.02-.04-.55,0-1.22,0-1.9.04-79.74.23-147.15,17.68-199.63,38.56-48.13,19.21-83.69,41.28-104.57,55.75-9.88,6.84-16.32,17.03-17.75,28.26-7.07,56.24,3.87,206.19,21.88,253.08,28.48,74.06,78.49,136.48,129.91,184.57h273.44V228.08c-30.51-5.77-63.71-9.32-99.36-9.43ZM785.14,501.44l18.35,103.4c.59,3.36-2.27,6.41-6.02,6.41h-88.12c-3.74,0-6.6-3.05-6.01-6.41l18.35-103.37c.58-3.36-1.06-6.68-4.17-8.63-16.41-10.42-27.02-27.87-26.64-47.53.59-29.41,26.72-54.03,59.13-55.6,36.06-1.76,65.93,24.29,65.93,56.66,0,19.25-10.56,36.28-26.72,46.51-3.03,1.95-4.67,5.23-4.08,8.56Z" style="fill: #fff;"/>
  <path d="M785.14,501.44l18.35,103.4c.59,3.36-2.27,6.41-6.02,6.41h-88.12c-3.74,0-6.6-3.05-6.01-6.41l18.35-103.37c.58-3.36-1.06-6.68-4.17-8.63-16.41-10.42-27.02-27.87-26.64-47.53.59-29.41,26.72-54.03,59.13-55.6,36.06-1.76,65.93,24.29,65.93,56.66,0,19.25-10.56,36.28-26.72,46.51-3.03,1.95-4.67,5.23-4.08,8.56Z" style="fill: none;"/>
  <path d="M854.88.11v81.24c-18.62-35.42-58.23-60.27-103.79-59.43-61.24,1.13-110.48,46.51-110.48,102.35v43.83c0,8.56-5.66,16.28-14.36,19.58l-86.57,32.87-25.6,9.72c-8.83,3.35-18.57-2.53-18.57-11.21v-99.55c0-43.62,13.15-84.45,36.05-119.4h323.32Z" style="fill: #fff;"/>
</svg>