<?xml version="1.0" encoding="UTF-8"?>
<svg id="Layer_1" xmlns="http://www.w3.org/2000/svg" width="854.95" height="778.98" viewBox="0 0 854.95 778.98">
  <path d="M854.95,0v214.8c-23.66,1.82-47.93,2.75-72.55,2.75-137.31,0-263.41-29.04-337.26-77.64-20.11-13.21-53.78-39.97-53.78-70.98,0-23.11,18.15-47.12,50.5-68.93h413.09Z" style="fill: #fff;"/>
  <path d="M854.95,292.29v129.07c-23.66,1.83-47.93,2.75-72.55,2.75-137.26,0-263.37-29-337.22-77.55-20.11-13.22-53.82-40.06-53.82-71.03v-78.77c1.06.76,2.15,1.56,3.2,2.27,2.61,1.85,5.3,3.7,8.08,5.47,85.97,56.64,227.94,90.38,379.76,90.38,24.5,0,48.75-.88,72.55-2.59Z" style="fill: #fff;"/>
  <path d="M854.95,580.7c-.03,1.91-.05,3.82-.05,5.74s.02,3.85.05,5.76v35.75c-23.64,1.82-47.95,2.76-72.55,2.76-137.31,0-263.41-28.99-337.22-77.59-20.11-13.22-53.82-40.06-53.82-71.03v-78.73c3.58,2.57,7.37,5.18,11.32,7.83,86.01,56.51,227.94,90.26,379.72,90.26,24.5,0,48.75-.89,72.55-2.6v81.85Z" style="fill: #fff;"/>
  <path d="M854.9,586.44c0-1.92.02-3.83.05-5.74v11.5c-.03-1.91-.05-3.83-.05-5.76Z" style="fill: #fff;"/>
  <path d="M854.95,705.47v73.51h-375.32c-55.67-26.74-88.27-59.34-88.27-90.33v-78.73c1.77,1.35,3.62,2.61,5.52,3.92,1.85,1.34,3.78,2.6,5.76,3.91,85.97,56.55,227.94,90.34,379.76,90.34,24.5,0,48.75-.89,72.55-2.62Z" style="fill: #fff;"/>
</svg>