<?xml version="1.0" encoding="UTF-8"?>
<svg id="Layer_1" xmlns="http://www.w3.org/2000/svg" width="854.95" height="778.98" viewBox="0 0 854.95 778.98">
  <path d="M854.95,173.43v605.52h-201.58c-.76-11.95-1.61-25.47-2.92-40.76-5.1-59.63-8.72-143.79-9.05-191.95-22.27,23.75-61.15,2.69-61.76-19.76-2.77-101.39-.37-201.31-.37-281.71,0-65.33,128.35-77.46,192.35-77.46,23.33,0,53.67,1.46,83.33,6.12Z" style="fill: #fff;"/>
  <path d="M854.95.04v95.18c-1.97,2.48-4.08,4.93-6.3,7.34-18.73,20.31-42.54,31.51-70.1,32.89-41.61,2.12-74.35-14.7-97.39-49.55-11.44-17.22-16.77-36.64-16.57-57.32.09-9.97,1.37-19.49,3.84-28.54h186.52Z" style="fill: #fff;"/>
</svg>