<?xml version="1.0" encoding="UTF-8"?>
<svg id="Layer_1" xmlns="http://www.w3.org/2000/svg" width="854.95" height="778.98" viewBox="0 0 854.95 778.98">
  <path d="M854.95,702.53v76.46h-125.89l79.59-79.59h.05c15.18,1.76,30.61,2.84,46.25,3.13Z" style="fill: #fff;"/>
  <path d="M351.63,423.63c38.83,45.56,125.17,136.88,242.09,202.54l113.38-113.38c-14.75-26.47-23.14-56.98-23.14-89.37,0-97.16,75.51-177.05,170.99-184.03v269.01l-76.19,76.19-86.92,86.84-73.1,73.11-34.43,34.45h-143.35c.49-.53.98-1.04,1.49-1.55l81.71-81.71c-163.85-98.85-265.15-235.72-271.66-244.69l-20.54-28.2,20.97-27.91c10.47-13.99,258.74-339.47,602.02-344.77v94.45c-241.47,4.59-437.99,204.12-503.32,279.02Z" style="fill: #fff;"/>
  <path d="M854.95,144.61v94.78c-95.48,6.98-170.99,86.87-170.99,184.03,0,32.39,8.39,62.9,23.14,89.37l-113.38,113.38c-116.92-65.66-203.26-156.98-242.09-202.54,65.33-74.9,261.85-274.43,503.32-279.02Z" style="fill: none;"/>
  <path d="M778.76,584.59l76.19-76.19v194.13c-15.64-.29-31.07-1.37-46.25-3.13h-.05l-79.59,79.59h-144.75l34.43-34.45,73.1-73.11,86.92-86.84Z" style="fill: none;"/>
</svg>