<?xml version="1.0" encoding="UTF-8"?>
<svg id="Layer_1" xmlns="http://www.w3.org/2000/svg" width="854.95" height="778.98" viewBox="0 0 854.95 778.98">
  <path d="M649.44,349.17c-10.94,11.33-10.66,29.4.67,40.34l94.99,91.74c5.52,5.35,12.69,8.02,19.81,8.02s14.86-2.89,20.42-8.62l69.62-71.59v369.92h-236.21c-81.13-71.55-169.61-176.16-215.04-306.39-26.64-76.36-41.11-347.27-21.8-382.08C395.63,65.7,418.1,37.79,529.2,0h325.75v327.31l-90.68,93.2-74.54-72c-11.33-10.94-29.35-10.62-40.29.67Z" style="fill: #fff;"/>
  <path d="M854.95,327.3v81.76l-69.62,71.59c-5.56,5.73-13.01,8.62-20.42,8.62s-14.29-2.67-19.81-8.02l-94.99-91.74c-11.33-10.94-11.61-29.01-.67-40.34,10.94-11.29,28.96-11.61,40.29-.67l74.54,72,90.68-93.2Z" style="fill: none;"/>
</svg>