<?xml version="1.0" encoding="UTF-8"?>
<svg id="Layer_1" xmlns="http://www.w3.org/2000/svg" width="854.95" height="778.98" viewBox="0 0 854.95 778.98">
  <path d="M411.37,408.62c0,35.2,28.64,63.84,63.84,63.84h152.55l-43.17,306.52h-85.84l31.16-221.48h-54.7c-82.1,0-148.88-66.78-148.88-148.88s66.78-148.88,148.88-148.88h379.74v85.05h-379.74c-35.2,0-63.84,28.63-63.84,63.83Z" style="fill: #fff;"/>
  <path d="M854.95,105.65v96.68c-21.7,8.23-45.21,12.73-69.76,12.73-108.82,0-197.34-88.53-197.34-197.34,0-5.97.27-11.89.79-17.73h85.66c-.93,5.78-1.41,11.7-1.41,17.73,0,61.92,50.38,112.3,112.3,112.3,26.34,0,50.59-9.12,69.76-24.37Z" style="fill: #fff;"/>
  <path d="M854.95,0v105.66c-19.17,15.25-43.42,24.37-69.76,24.37-61.92,0-112.3-50.38-112.3-112.3,0-6.03.48-11.95,1.41-17.73h180.65Z" style="fill: none;"/>
  <path d="M475.21,344.79h379.74v434.19h-270.36l43.17-306.52h-152.55c-35.2,0-63.84-28.64-63.84-63.84s28.64-63.83,63.84-63.83Z" style="fill: none;"/>
</svg>