<?xml version="1.0" encoding="UTF-8"?>
<svg id="Layer_1" xmlns="http://www.w3.org/2000/svg" width="72" height="72" viewBox="0 0 72 72">
  <circle cx="36" cy="36" r="35.29" style="fill: none; stroke: #231f20; stroke-miterlimit: 10; stroke-width: 1.12px;"/>
  <g style="opacity: .6;">
    <path d="M24.31,22.72c-.55.6-1.26.93-2.07.97-1.23.06-2.19-.43-2.87-1.46-.34-.51-.49-1.08-.49-1.69,0-.84.3-1.57.88-2.17.53-.55,1.18-.86,1.93-.95.04,0,.07-.01.11-.02h.46c.12.02.25.03.37.06,1.19.26,2.02.96,2.39,2.12.38,1.17.12,2.24-.71,3.15Z" style="fill: #231f20;"/>
    <path d="M27.7,35.23c-.02.62-1.01,1.2-1.68.71,0,1.36-.07,3.81-.23,5.41-.4,3.89.04,3.92-3.57,3.96-4,.04-3.45-.23-3.76-3.83-.15-1.76-.26-4.24-.27-5.66-.66.7-1.8.08-1.82-.58-.08-2.99-.01-5.94-.01-8.31,0-1.93,3.79-2.29,5.68-2.29,1.98,0,5.68.36,5.68,2.29,0,2.37.07,5.32-.01,8.31Z" style="fill: #231f20;"/>
    <path d="M51.78,22.72c-.55.6-1.26.93-2.07.97-1.23.06-2.19-.43-2.87-1.46-.34-.51-.49-1.08-.49-1.69,0-.84.3-1.57.88-2.17.53-.55,1.18-.86,1.93-.95.04,0,.07-.01.11-.02h.46c.12.02.25.03.37.06,1.19.26,2.02.96,2.39,2.12.38,1.17.12,2.24-.71,3.15Z" style="fill: #231f20;"/>
    <path d="M55.17,35.23c-.02.62-1.01,1.2-1.68.71,0,1.36-.07,3.81-.23,5.41-.4,3.89.04,3.92-3.57,3.96-4,.04-3.45-.23-3.76-3.83-.15-1.76-.26-4.24-.27-5.66-.66.7-1.8.08-1.82-.58-.08-2.99-.01-5.94-.01-8.31,0-1.93,3.79-2.29,5.68-2.29,1.98,0,5.68.36,5.68,2.29,0,2.37.07,5.32-.01,8.31Z" style="fill: #231f20;"/>
    <path d="M59.51,48.21c0,.5-.2.95-.53,1.28-.33.33-.78.53-1.28.53h-19.98v3.24h1.42c2,0,3.62,1.62,3.62,3.62h0s-13.52,0-13.52,0h0c0-2,1.62-3.62,3.62-3.62h1.25v-3.24H14.3c-1,0-1.81-.81-1.81-1.81,0-.5.2-.95.53-1.28.33-.33.78-.53,1.28-.53h43.41c.99,0,1.81.81,1.81,1.81Z" style="fill: #231f20;"/>
  </g>
</svg>
