<?xml version="1.0" encoding="UTF-8"?>
<svg id="Layer_1" xmlns="http://www.w3.org/2000/svg" width="72" height="72" viewBox="0 0 72 72">
  <circle cx="36" cy="36" r="35.29" style="fill: none; stroke: #231f20; stroke-miterlimit: 10; stroke-width: 1.12px;"/>
  <g style="opacity: .6;">
    <path d="M60.06,37.14l-.84,1.08c-.41.53-10.22,13.02-23.45,13.02-1.79,0-3.51-.22-5.14-.61l3.07-3.07h0c.68.08,1.37.12,2.07.12,9.35,0,17.11-7.66,19.71-10.55-1.11-1.25-3.17-3.39-5.93-5.41l2.57-2.57h0c4.3,3.25,6.91,6.64,7.12,6.91l.83,1.09Z" style="fill: #231f20;"/>
    <path d="M52.07,21.06c-.38-.38-.87-.56-1.37-.56s-.99.19-1.37.56l-4.05,4.05c-2.86-1.23-6.06-2.06-9.51-2.06-13.12,0-22.65,12.48-23.04,13.02l-.79,1.05.78,1.06c.25.34,4.07,5.51,10.25,9.24l-3.08,3.08c-.75.75-.75,1.98,0,2.73.37.38.87.56,1.36.56.41,0,.82-.13,1.17-.39.05-.07.11-.13.17-.2l3.95-3.95,2.76-2.76,3.28-3.28,9.47-9.47,4.18-4.18,5.81-5.81c.06-.06.13-.12.2-.18.56-.76.51-1.84-.18-2.53ZM39.34,31.05c-1-.56-2.15-.87-3.37-.87-3.84,0-6.97,3.13-6.97,6.97,0,1.22.32,2.37.87,3.37l-4.28,4.28c-4.41-2.48-7.67-5.93-9.14-7.64,2.49-2.86,10.06-10.54,19.32-10.54,2.38,0,4.65.48,6.75,1.25l-3.19,3.19Z" style="fill: #231f20;"/>
  </g>
</svg>
