<?xml version="1.0" encoding="UTF-8"?>
<svg id="Layer_1" xmlns="http://www.w3.org/2000/svg" width="72" height="72" viewBox="0 0 72 72">
  <circle cx="36" cy="36" r="35.29" style="fill: none; stroke: #231f20; stroke-miterlimit: 10; stroke-width: 1.12px;"/>
  <path d="M56.34,22.6c-.77-1.4-2.12-3-10.07-5.32-3.49-1.02-8.51-1.77-9.73-1.77-1.15,0-6.25.76-9.73,1.77-7.95,2.32-9.3,3.92-10.07,5.32-.94,1.7-.24,14.89,1.06,18.61,4.37,12.53,16.93,20.19,18.74,20.19s14.64-7.81,18.75-20.19c1.24-3.74,2-16.92,1.06-18.61ZM45.08,32.67l-8.7,8.94c-.27.28-.63.42-.99.42s-.7-.13-.96-.39l-4.63-4.47c-.55-.53-.57-1.41-.03-1.96.53-.55,1.41-.57,1.96-.03l3.63,3.51,7.73-7.95c.53-.55,1.41-.56,1.96-.03.55.53.56,1.41.03,1.96Z" style="fill: #231f20; opacity: .6;"/>
</svg>
