<?xml version="1.0" encoding="UTF-8"?>
<svg id="Layer_1" xmlns="http://www.w3.org/2000/svg" width="72" height="72" viewBox="0 0 72 72">
  <circle cx="36" cy="36" r="35.29" style="fill: #eca3b4; stroke: #231f20; stroke-miterlimit: 10; stroke-width: 1.12px;"/>
  <g style="opacity: .6;">
    <path d="M57.79,54.29l-6.5-6.5c-.85-.85-2.08-1.08-3.14-.7l-3.13-3.14.55-.56c2.21-2.84,3.52-6.41,3.52-10.27,0-9.25-7.53-16.78-16.78-16.78s-16.78,7.53-16.78,16.78,7.52,16.78,16.78,16.78c3.86,0,7.43-1.32,10.28-3.52l.6-.6,3.13,3.13c-.38,1.06-.14,2.29.71,3.14l6.5,6.5c.58.59,1.36.88,2.12.88s1.54-.29,2.13-.88c1.17-1.17,1.17-3.08,0-4.25ZM32.35,21.48c6.36,0,11.55,4.99,11.86,11.27-.53-.68-5.36-6.61-11.98-6.61s-11.13,5.8-11.75,6.59c.33-6.27,5.52-11.25,11.86-11.25ZM42.33,33.35c-1.33,1.48-5.31,5.41-10.1,5.41s-8.65-3.93-9.9-5.4c1.28-1.47,5.15-5.4,9.9-5.4s8.79,3.91,10.1,5.39ZM32.35,45.24c-6.35,0-11.54-4.98-11.86-11.26.64.84,5.25,6.6,11.75,6.6s11.47-5.99,11.98-6.62c-.31,6.28-5.5,11.28-11.86,11.28Z" style="fill: #231f20;"/>
    <path d="M35.92,33.36c0,1.97-1.6,3.57-3.57,3.57s-3.57-1.6-3.57-3.57,1.6-3.57,3.57-3.57,3.57,1.6,3.57,3.57Z" style="fill: #231f20;"/>
  </g>
</svg>