<?xml version="1.0" encoding="UTF-8"?>
<svg id="Layer_1" xmlns="http://www.w3.org/2000/svg" width="72" height="72" viewBox="0 0 72 72">
  <circle cx="36" cy="36" r="35.29" style="fill: #f6d08b; stroke: #231f20; stroke-miterlimit: 10; stroke-width: 1.12px;"/>
  <g style="opacity: .6;">
    <path d="M49.65,34.59c-5.76,0-10.44,4.67-10.44,10.44s4.67,10.43,10.44,10.43,10.43-4.67,10.43-10.43-4.67-10.44-10.43-10.44ZM56.1,42.28l-7.82,8.04c-.24.25-.57.38-.89.38s-.63-.12-.87-.35l-4.16-4.02c-.5-.48-.51-1.27-.03-1.77.48-.49,1.27-.51,1.77-.03l3.26,3.15,6.95-7.14c.48-.5,1.27-.51,1.77-.03.49.48.51,1.27.02,1.77Z" style="fill: #231f20;"/>
    <path d="M21.28,19.82c-5.76,0-10.44,4.67-10.44,10.44s4.67,10.43,10.44,10.43,10.43-4.67,10.43-10.43-4.67-10.44-10.43-10.44ZM26.3,34.25c.47.48.46,1.26-.02,1.74-.24.23-.55.35-.86.35s-.64-.12-.88-.37l-3.27-3.35-3.27,3.35c-.24.24-.56.37-.88.37s-.62-.12-.86-.35c-.48-.47-.49-1.25-.02-1.74l3.31-3.39-3.31-3.39c-.47-.48-.46-1.26.02-1.73.24-.23.55-.35.86-.35s.64.12.88.37l3.27,3.35,3.27-3.35c.24-.25.56-.37.88-.37s.62.12.86.35c.48.47.49,1.25.02,1.73l-3.31,3.39,3.31,3.39Z" style="fill: #231f20;"/>
    <rect x="12.63" y="36.08" width="44.6" height="3.79" rx="1.89" ry="1.89" transform="translate(-16.62 35.82) rotate(-45)" style="fill: #231f20;"/>
  </g>
</svg>