<?xml version="1.0" encoding="UTF-8"?>
<svg id="Layer_1" xmlns="http://www.w3.org/2000/svg" width="72" height="72" viewBox="0 0 72 72">
  <circle cx="36" cy="36" r="35.29" style="fill: #bed795; stroke: #231f20; stroke-miterlimit: 10; stroke-width: 1.12px;"/>
  <g style="opacity: .6;">
    <path d="M50.81,35c-.06-.52-.36-.98-.81-1.3-.95-.66-2.58-1.67-4.78-2.55-2.4-.95-5.48-1.75-9.12-1.76-.03,0-.06,0-.09,0-.03,0-.06,0-.09,0-3.65.01-6.73.81-9.13,1.76-2.2.88-3.83,1.89-4.78,2.55-.45.31-.75.78-.81,1.29-.32,2.57.18,9.43,1,11.57,3.22,8.38,12.47,13.5,13.8,13.5,1.35,0,10.78-5.22,13.81-13.5.79-2.15,1.31-9,1-11.57ZM37.45,42.32l.84,4.73c.03.15-.1.29-.28.29h-4.03c-.17,0-.3-.14-.28-.29l.84-4.73c.03-.15-.05-.31-.19-.39-.75-.48-1.24-1.27-1.22-2.17.03-1.34,1.22-2.47,2.7-2.54,1.65-.08,3.01,1.11,3.01,2.59,0,.88-.48,1.66-1.22,2.13-.14.09-.21.24-.19.39Z" style="fill: #231f20;"/>
    <path d="M47.79,25.02v4.39c0,.4-.45.67-.86.52l-1.16-.44-3.96-1.5c-.4-.15-.66-.5-.66-.89v-1.9c0-2.63-2.37-4.84-5.26-4.79-2.8.05-5.05,2.13-5.05,4.68v2c0,.39-.26.74-.66.9l-3.96,1.5-1.17.44c-.4.15-.85-.12-.85-.51v-4.55c0-6.07,5.57-10.96,12.32-10.69,6.33.25,11.26,5.1,11.26,10.85Z" style="fill: #231f20;"/>
  </g>
</svg>