<?xml version="1.0" encoding="UTF-8"?>
<svg id="Layer_1" xmlns="http://www.w3.org/2000/svg" width="72" height="72" viewBox="0 0 72 72">
  <circle cx="36" cy="36" r="35.29" style="fill: #84b4da; stroke: #231f20; stroke-miterlimit: 10; stroke-width: 1.12px;"/>
  <g style="opacity: .6;">
    <path d="M50.32,23.14c0,1.29-1.4,2.4-2.23,2.95-3.06,2.01-8.3,3.22-13.99,3.22s-10.93-1.2-13.99-3.22c-.83-.55-2.23-1.66-2.23-2.95,0-2.91,6.94-6.16,16.22-6.16s16.23,3.25,16.23,6.16Z" style="fill: #231f20;"/>
    <path d="M41.2,54.34c-2.12.43-4.52.68-7.1.68-9.28,0-16.22-3.26-16.22-6.17v-3.27c.07.06.15.11.23.16.08.06.16.11.24.16,3.57,2.35,9.46,3.75,15.76,3.75,1.33,0,2.63-.06,3.9-.18.71,1.85,1.81,3.51,3.2,4.87Z" style="fill: #231f20;"/>
    <path d="M37.11,44.61c0,.58.04,1.15.11,1.71-1.01.08-2.06.12-3.12.12-5.7,0-10.93-1.2-13.99-3.22-.83-.55-2.23-1.66-2.23-2.95v-3.27c.15.11.31.21.47.32,3.57,2.34,9.46,3.74,15.75,3.74,1.19,0,2.36-.05,3.51-.15-.33,1.17-.5,2.4-.5,3.67Z" style="fill: #231f20;"/>
    <path d="M50.32,28.45v2.57c-4.77.13-8.93,2.72-11.25,6.55-1.59.21-3.26.32-4.98.32-5.7,0-10.93-1.2-13.99-3.22-.83-.55-2.23-1.66-2.23-2.95v-3.27s.09.06.13.09c.11.08.22.15.34.23,3.57,2.35,9.46,3.75,15.76,3.75s12.19-1.4,15.76-3.75c.08-.05.16-.11.24-.16.08-.05.16-.11.23-.16Z" style="fill: #231f20;"/>
    <path d="M61.11,43.28c-.09-.4-.46-.71-.88-.71h-1.84c-.18-.7-.46-1.35-.81-1.96l1.3-1.3c.31-.3.35-.78.12-1.13,0,0,0,0,0,0-.04-.04-.07-.09-.11-.13,0,0,0,0,0,0l-1.59-1.59s0,0-.02-.02c-.04-.03-.08-.06-.13-.1,0,0,0,0,0,0-.35-.22-.82-.18-1.13.12l-1.3,1.3c-.61-.35-1.27-.63-1.96-.81v-1.84c0-.43-.3-.79-.71-.88-.06,0-.13-.02-.2-.02h-2.25c-.06,0-.13.01-.2.02-.4.09-.71.46-.71.88v1.84c-.7.18-1.35.46-1.96.81l-1.3-1.3c-.3-.3-.78-.35-1.13-.12,0,0,0,0,0,0-.05.04-.09.08-.14.11h0s-1.59,1.59-1.59,1.59c0,0,0,0,0,0-.04.04-.07.09-.11.13,0,0,0,0,0,0-.23.35-.19.83.12,1.13l1.3,1.3c-.35.61-.63,1.27-.81,1.96h-1.84c-.43,0-.79.3-.89.71,0,.07-.02.13-.02.2v2.25c0,.07.01.13.02.2.09.4.46.71.89.71h1.84c.18.7.46,1.35.81,1.96l-1.3,1.3c-.3.31-.35.78-.12,1.13,0,0,0,0,0,0,.04.04.07.08.1.13,0,0,0,0,.02.02l1.59,1.59c.05.04.1.08.16.13.35.22.82.18,1.12-.13l1.3-1.3c.61.35,1.27.63,1.96.81v1.84c0,.43.3.79.71.88.07,0,.13.02.2.02h2.25c.07,0,.13-.01.2-.02.4-.09.71-.46.71-.88v-1.84c.7-.18,1.36-.46,1.96-.81l1.3,1.3c.3.3.77.35,1.12.13.05-.04.1-.07.14-.11l1.6-1.6s0,0,.02-.02c.03-.04.06-.08.1-.13,0,0,0,0,0,0,.23-.35.19-.82-.12-1.13l-1.3-1.3c.35-.61.63-1.27.81-1.96h1.84c.43,0,.79-.3.88-.71,0-.07.02-.13.02-.2v-2.25c0-.07-.01-.13-.02-.2ZM52.74,48.62c-.2.1-.41.19-.63.26-.45.15-.92.23-1.42.23s-.95-.08-1.39-.22c-.21-.07-.42-.15-.62-.25-.87-.43-1.57-1.14-2.01-2-.1-.2-.18-.4-.25-.61-.15-.45-.23-.92-.23-1.42s.08-.97.23-1.42c.07-.21.15-.41.25-.61.44-.87,1.14-1.57,2.01-2,.2-.1.4-.18.62-.25.44-.15.91-.22,1.39-.22s.97.08,1.42.23c.22.07.43.16.63.26.85.44,1.55,1.13,1.98,1.98.1.2.19.42.26.63.14.44.22.91.22,1.39s-.08.96-.22,1.39c-.07.22-.16.43-.26.63-.43.85-1.12,1.55-1.98,1.98Z" style="fill: #231f20;"/>
  </g>
</svg>