<?xml version="1.0" encoding="UTF-8"?>
<svg id="Layer_1" xmlns="http://www.w3.org/2000/svg" width="72" height="72" viewBox="0 0 72 72">
  <circle cx="36" cy="36" r="35.29" style="fill: #80cada; stroke: #231f20; stroke-miterlimit: 10; stroke-width: 1.12px;"/>
  <g style="opacity: .6;">
    <path d="M30.23,57.69c-.85,0-1.68-.21-2.43-.62-1.17-.64-2.02-1.7-2.39-3-.33-1.15-.1-2.58-.03-2.95l1.71-12.13h-1.91c-2.87,0-5.2-2.33-5.2-5.2s2.33-5.2,5.2-5.2h21.65c2.87,0,5.2,2.33,5.2,5.2s-2.33,5.2-5.2,5.2h-1.91l1.7,12.07.08,1.46c-.09,1.79-.87,4.01-3.38,4.88-1.28.45-2.66.36-3.89-.25-1.23-.61-2.19-1.71-2.62-3.02-.03-.1-.06-.19-.09-.29l-.72-2.11-.77,2.25c-.11.28-1.14,2.78-3.46,3.48-.51.16-1.03.23-1.54.23ZM25.17,31.56c-1.23,0-2.23,1-2.23,2.23s1,2.23,2.23,2.23h5.33l-2.2,15.63c-.08.42-.15,1.22-.04,1.61.15.52.49.95.96,1.2.51.28,1.11.33,1.69.15.78-.24,1.38-1.3,1.55-1.7l3.54-10.4,3.58,10.53c.01.05.56,1.31,1.18,1.51.54.17,1.06.22,1.58.04,1.48-.52,1.43-2.24,1.37-2.81l-.23-1.49-1.99-14.28h5.33c1.23,0,2.23-1,2.23-2.23s-1-2.23-2.23-2.23h-21.65Z" style="fill: #231f20;"/>
    <path d="M36,27.03c-3.8,0-6.89-3.09-6.89-6.89s3.09-6.89,6.89-6.89,6.89,3.09,6.89,6.89-3.09,6.89-6.89,6.89ZM36,16.21c-2.16,0-3.92,1.76-3.92,3.92s1.76,3.92,3.92,3.92,3.92-1.76,3.92-3.92-1.76-3.92-3.92-3.92Z" style="fill: #231f20;"/>
  </g>
</svg>